<mxfile host="Electron" agent="Mozilla/5.0 (Windows NT 10.0; Win64; x64) AppleWebKit/537.36 (KHTML, like Gecko) draw.io/28.0.6 Chrome/138.0.7204.100 Electron/37.2.3 Safari/537.36" version="28.0.6">
  <diagram name="Page-1" id="9uLbS0GCFSxTFveDY6gY">
    <mxGraphModel dx="983" dy="586" grid="1" gridSize="10" guides="1" tooltips="1" connect="1" arrows="1" fold="1" page="1" pageScale="1" pageWidth="850" pageHeight="1100" math="0" shadow="0">
      <root>
        <mxCell id="0" />
        <mxCell id="1" parent="0" />
        <mxCell id="oNGcHklVtlwxsXPzYTCh-1" value="" style="rounded=0;whiteSpace=wrap;html=1;fillColor=none;" vertex="1" parent="1">
          <mxGeometry x="80" y="180" width="120" height="60" as="geometry" />
        </mxCell>
        <mxCell id="oNGcHklVtlwxsXPzYTCh-2" value="" style="rounded=0;whiteSpace=wrap;html=1;fillColor=none;" vertex="1" parent="1">
          <mxGeometry x="80" y="280" width="120" height="60" as="geometry" />
        </mxCell>
        <mxCell id="oNGcHklVtlwxsXPzYTCh-3" value="" style="rounded=0;whiteSpace=wrap;html=1;fillColor=none;" vertex="1" parent="1">
          <mxGeometry x="80" y="380" width="120" height="60" as="geometry" />
        </mxCell>
        <mxCell id="oNGcHklVtlwxsXPzYTCh-4" value="Backend (AI &amp;amp; API):" style="text;html=1;align=center;verticalAlign=middle;resizable=0;points=[];autosize=1;strokeColor=none;fillColor=none;" vertex="1" parent="1">
          <mxGeometry x="75" y="195" width="130" height="30" as="geometry" />
        </mxCell>
        <mxCell id="oNGcHklVtlwxsXPzYTCh-5" value="Frontend:" style="text;html=1;align=center;verticalAlign=middle;resizable=0;points=[];autosize=1;strokeColor=none;fillColor=none;" vertex="1" parent="1">
          <mxGeometry x="105" y="295" width="70" height="30" as="geometry" />
        </mxCell>
        <mxCell id="oNGcHklVtlwxsXPzYTCh-6" value="Database:" style="text;html=1;align=center;verticalAlign=middle;resizable=0;points=[];autosize=1;strokeColor=none;fillColor=none;" vertex="1" parent="1">
          <mxGeometry x="100" y="395" width="80" height="30" as="geometry" />
        </mxCell>
        <mxCell id="oNGcHklVtlwxsXPzYTCh-7" value="" style="rounded=0;whiteSpace=wrap;html=1;fillColor=none;" vertex="1" parent="1">
          <mxGeometry x="80" y="480" width="120" height="60" as="geometry" />
        </mxCell>
        <mxCell id="oNGcHklVtlwxsXPzYTCh-8" value="Version Control:" style="text;html=1;align=center;verticalAlign=middle;resizable=0;points=[];autosize=1;strokeColor=none;fillColor=none;" vertex="1" parent="1">
          <mxGeometry x="85" y="495" width="110" height="30" as="geometry" />
        </mxCell>
        <mxCell id="oNGcHklVtlwxsXPzYTCh-9" value="" style="rounded=0;whiteSpace=wrap;html=1;fillColor=none;" vertex="1" parent="1">
          <mxGeometry x="80" y="580" width="120" height="60" as="geometry" />
        </mxCell>
        <mxCell id="oNGcHklVtlwxsXPzYTCh-10" value="Deployment:" style="text;html=1;align=center;verticalAlign=middle;resizable=0;points=[];autosize=1;strokeColor=none;fillColor=none;" vertex="1" parent="1">
          <mxGeometry x="95" y="595" width="90" height="30" as="geometry" />
        </mxCell>
        <mxCell id="oNGcHklVtlwxsXPzYTCh-11" value="" style="shape=flexArrow;endArrow=classic;html=1;rounded=0;exitX=0.977;exitY=0.733;exitDx=0;exitDy=0;exitPerimeter=0;" edge="1" parent="1">
          <mxGeometry width="50" height="50" relative="1" as="geometry">
            <mxPoint x="202.01" y="209.8" as="sourcePoint" />
            <mxPoint x="320" y="209.81" as="targetPoint" />
          </mxGeometry>
        </mxCell>
        <mxCell id="oNGcHklVtlwxsXPzYTCh-12" value="" style="shape=flexArrow;endArrow=classic;html=1;rounded=0;exitX=0.977;exitY=0.733;exitDx=0;exitDy=0;exitPerimeter=0;" edge="1" parent="1">
          <mxGeometry width="50" height="50" relative="1" as="geometry">
            <mxPoint x="200" y="309.8" as="sourcePoint" />
            <mxPoint x="318" y="309.8" as="targetPoint" />
          </mxGeometry>
        </mxCell>
        <mxCell id="oNGcHklVtlwxsXPzYTCh-13" value="" style="shape=flexArrow;endArrow=classic;html=1;rounded=0;exitX=0.977;exitY=0.733;exitDx=0;exitDy=0;exitPerimeter=0;" edge="1" parent="1">
          <mxGeometry width="50" height="50" relative="1" as="geometry">
            <mxPoint x="200" y="409.8" as="sourcePoint" />
            <mxPoint x="318" y="409.8" as="targetPoint" />
          </mxGeometry>
        </mxCell>
        <mxCell id="oNGcHklVtlwxsXPzYTCh-14" value="" style="shape=flexArrow;endArrow=classic;html=1;rounded=0;exitX=0.977;exitY=0.733;exitDx=0;exitDy=0;exitPerimeter=0;" edge="1" parent="1">
          <mxGeometry width="50" height="50" relative="1" as="geometry">
            <mxPoint x="200" y="509.8" as="sourcePoint" />
            <mxPoint x="318" y="509.8" as="targetPoint" />
          </mxGeometry>
        </mxCell>
        <mxCell id="oNGcHklVtlwxsXPzYTCh-15" value="" style="shape=flexArrow;endArrow=classic;html=1;rounded=0;exitX=0.977;exitY=0.733;exitDx=0;exitDy=0;exitPerimeter=0;" edge="1" parent="1">
          <mxGeometry width="50" height="50" relative="1" as="geometry">
            <mxPoint x="200" y="610" as="sourcePoint" />
            <mxPoint x="318" y="610" as="targetPoint" />
          </mxGeometry>
        </mxCell>
        <mxCell id="oNGcHklVtlwxsXPzYTCh-16" value="" style="rounded=0;whiteSpace=wrap;html=1;fillColor=none;" vertex="1" parent="1">
          <mxGeometry x="320" y="180" width="200" height="60" as="geometry" />
        </mxCell>
        <mxCell id="oNGcHklVtlwxsXPzYTCh-17" value="Python&lt;div&gt;FastAPI&lt;/div&gt;&lt;div&gt;scikit-learn, pandas, NumPy&lt;/div&gt;" style="text;html=1;align=center;verticalAlign=middle;resizable=0;points=[];autosize=1;strokeColor=none;fillColor=none;" vertex="1" parent="1">
          <mxGeometry x="335" y="180" width="170" height="60" as="geometry" />
        </mxCell>
        <mxCell id="oNGcHklVtlwxsXPzYTCh-18" value="" style="rounded=0;whiteSpace=wrap;html=1;fillColor=none;" vertex="1" parent="1">
          <mxGeometry x="320" y="280" width="120" height="60" as="geometry" />
        </mxCell>
        <mxCell id="oNGcHklVtlwxsXPzYTCh-19" value="React.js&lt;div&gt;TailwindCSS&lt;/div&gt;&lt;div&gt;Cart.js / Recharts&lt;/div&gt;" style="text;html=1;align=center;verticalAlign=middle;resizable=0;points=[];autosize=1;strokeColor=none;fillColor=none;" vertex="1" parent="1">
          <mxGeometry x="320" y="280" width="120" height="60" as="geometry" />
        </mxCell>
        <mxCell id="oNGcHklVtlwxsXPzYTCh-20" value="" style="rounded=0;whiteSpace=wrap;html=1;fillColor=none;" vertex="1" parent="1">
          <mxGeometry x="320" y="380" width="120" height="60" as="geometry" />
        </mxCell>
        <mxCell id="oNGcHklVtlwxsXPzYTCh-21" value="MongoDB" style="text;html=1;align=center;verticalAlign=middle;resizable=0;points=[];autosize=1;strokeColor=none;fillColor=none;" vertex="1" parent="1">
          <mxGeometry x="340" y="395" width="80" height="30" as="geometry" />
        </mxCell>
        <mxCell id="oNGcHklVtlwxsXPzYTCh-22" value="" style="rounded=0;whiteSpace=wrap;html=1;fillColor=none;" vertex="1" parent="1">
          <mxGeometry x="320" y="480" width="120" height="60" as="geometry" />
        </mxCell>
        <mxCell id="oNGcHklVtlwxsXPzYTCh-23" value="Git&lt;div&gt;Gitub&lt;/div&gt;" style="text;html=1;align=center;verticalAlign=middle;resizable=0;points=[];autosize=1;strokeColor=none;fillColor=none;" vertex="1" parent="1">
          <mxGeometry x="355" y="490" width="50" height="40" as="geometry" />
        </mxCell>
        <mxCell id="oNGcHklVtlwxsXPzYTCh-24" value="" style="rounded=0;whiteSpace=wrap;html=1;fillColor=none;" vertex="1" parent="1">
          <mxGeometry x="320" y="580" width="120" height="60" as="geometry" />
        </mxCell>
        <mxCell id="oNGcHklVtlwxsXPzYTCh-25" value="Docker&lt;div&gt;Swagger&lt;/div&gt;&lt;div&gt;AWS&lt;/div&gt;" style="text;html=1;align=center;verticalAlign=middle;resizable=0;points=[];autosize=1;strokeColor=none;fillColor=none;" vertex="1" parent="1">
          <mxGeometry x="345" y="580" width="70" height="60" as="geometry" />
        </mxCell>
      </root>
    </mxGraphModel>
  </diagram>
</mxfile>
